<svg id="Layer_1" data-name="Layer 1" xmlns="http://www.w3.org/2000/svg" viewBox="0 0 1495.2 1723.8"><defs><style>.cls-1{fill:#ffffff;}</style></defs><title>sunburst-black</title><path class="cls-1" d="M524.49.69A19.12,19.12,0,0,0,511.24,14c-.72,2.66-1.54,5.3-2.31,8a51.72,51.72,0,0,0-1.45,10.37,42.84,42.84,0,0,0,.75,8.6c.48,3.67,1,7.23,1.77,10.84a148.92,148.92,0,0,0,5,17.18c2.27,6.71,4.59,13.41,6.91,20.11,4.36,12.63,9.49,25,14.7,37.3q3.75,8.81,7.59,17.59c2.55,5.85,5,11.78,7.7,17.57Q564.47,188.4,577,215.33c6.5,14,12.87,28,19.51,41.87l27.27,57,27.07,56.62c4.8,10,9.39,20.19,14.07,30.29l52.17,112.5,20.5,48.7q-11.83,30.55-23.68,61.12c-10.72,27.64-21.84,55.12-32.95,82.6l-3.66-1.64c-3.39-1.53-6.91-2.92-10.23-4.64L650,691l-69.41-35.87c-11.4-5.89-22.88-11.61-34.18-17.7l-56.46-30.45q-46.55-25.09-93.12-50.16l-66.66-35.84c-11.2-6-22.22-12.44-33.29-18.71q-8.08-4.56-16.1-9.23l-3.69-3.51q-19.57-18.69-39.16-37.38c-4.62-4.42-9.5-8.59-14.25-12.88l-29.41-26.59c-11.3-10.22-22.5-20.56-34-30.57l-46.88-40.81c-5.92-5.16-12.15-10-18.21-15-5.49-4.52-10.9-9.18-16.51-13.56-16-12.53-31.94-25.35-48.53-37.17A20,20,0,0,0,0,292.81l.71,5.32A20,20,0,0,0,5.86,307c7.3,8.92,15,17.52,22.55,26.23,12.54,14.47,25,29,38,43.11C75,385.65,84,394.65,93.06,403.61q14.72,14.63,30.21,28.43c20.31,18.06,42.17,34.44,64.39,50q23.57,16.55,48,31.68L261,538.08c10,9.66,20.16,19.24,30.12,29l47.1,46.13,38,37.27c4.43,4.34,9.05,8.49,13.55,12.75s9,8.53,13.55,12.79c9.79,9.21,19.68,18.32,29.78,27.2a726.42,726.42,0,0,0,63.08,49q15.1,10.58,31,19.88a327.53,327.53,0,0,0,38.48,18.82,355.47,355.47,0,0,0,71.16,21.62Q627.2,835.24,617.55,858c-1.4,3.28-3,6.5-4.48,9.73q-7.16,15.4-14.32,30.79-14.67,31.49-29.31,63c-1.35,2.9-2.8,5.72-4.28,8.56l-14.61,28.13q-2.87,5.55-5.75,11.08l-19.72,11.28c-6.27,3.59-12.3,7.6-18.42,11.44-7.44,4.68-15,9.22-22.32,14l-28.28,18.53L444.63,1072c-2,1.33-3.92,2.87-5.86,4.33l-27.43,20.7C403,1103.33,395,1110,387,1116.7c-10.47,8.83-20.46,18.14-30.13,27.84q-13.66,13.71-26.56,28.19a405.69,405.69,0,0,0-27.09,34.58c-7.36,10.33-14.38,20.94-21.17,31.66a307.1,307.1,0,0,0-19.76,36.14,154.92,154.92,0,0,0-7.86,20.35,63.27,63.27,0,0,0-1.69,9.07c-.61,4.32-1.13,8.55-1.41,12.89a62.68,62.68,0,0,0,.3,9.49c.35,4.17,1.06,8.33,1.75,12.46a114.41,114.41,0,0,0,14.72,37.68l1.52,2a44.54,44.54,0,0,0,5.5,6.72l1.86,1.46a24.47,24.47,0,0,0,10.77,6.27c3.23,1,6.62,1.24,10,1.62a29.62,29.62,0,0,0,5.88,0,63.4,63.4,0,0,0,10.87-1.8,53.25,53.25,0,0,0,5.16-1.91q4.38-1.71,8.61-3.77c5.29-2.49,10.12-6.22,14.76-9.72,5.9-4.44,11.55-9.12,17.05-14,4.14-3.7,8.1-7.59,12.08-11.46l12.95-12.56c6-5.8,11.65-11.93,17.31-18.05,18.37-19.84,34.79-41.42,50.54-63.37,3-4.13,5.95-8.24,8.72-12.5l7.26-11.17,21.67-33.32,14.78-22.74c2.54-3.9,4.72-8,7.05-12.07q18.91-32.54,37.83-65.11l5.89-10.13c.68-1.17,1.41-2.33,2-3.53l9.14-17.64q7.77-15,15.56-30l16.44-9.45c1.12-.65,2.32-1.2,3.48-1.79l12.14-6.16,63.41-32.18c3.5-1.77,7-3.43,10.57-5.11l32.48-15.36c15.36-7.26,30.68-14.6,46.08-21.77C785,940.29,802.45,932,820.05,924q22.5-10.15,45-20.25,1.88,6,3.76,12.11l39.06,125.82c.66,2.11,1.21,4.25,1.79,6.38l6.47,23.78,20.7,76.12q8,29.43,16,58.86c3.26,12,6,24.17,9,36.26L978,1309.31c1,4.21,1.82,8.48,2.7,12.73q3.84,18.64,7.67,37.28c3.19,15.5,6.41,31,9.46,46.52,3.56,18.1,7,36.22,10.71,54.28q6.44,31.38,12.86,62.76c4,19.57,8.34,39.09,12.52,58.63,4.26,19.92,9,39.74,13.61,59.59q7.61,32.75,15.77,65.38c2.53,10.15,12.46,17.32,22.75,17.32a23.91,23.91,0,0,0,22.75-17.32c3.88-12.89,2.63-26.56,1.18-39.74-.81-7.36-1.65-14.71-2.44-22.07q-2-18.11-3.91-36.22c-.83-7.65-1.8-15.27-2.81-22.89-1.3-10-2.58-19.89-4.12-29.8q-1.45-9.36-2.9-18.72c-.56-3.53-1-7.11-1.66-10.62q-2.45-12.81-4.9-25.59c-3.08-16-6.08-32.06-9.27-48.06q-22.7-114-45.08-228c-8-40.88-15.59-81.85-23.39-122.77-6.73-35.31-12.79-70.76-19.12-106.14-2.32-13-4.85-25.88-6.92-38.88l-9.93-62.53q-2-12.73-4-25.47l9.56,3.49q7.13,2.61,14.24,5.25l17.55,40.36q10.42,25.31,20.84,50.62l14.21,34.53c1.85,4.49,3.82,9,5.54,13.49q19.82,52.13,39.53,104.3,18.77,49.8,37.71,99.52c11.7,30.72,24.29,61.11,36,91.8,1,2.76,2.37,5,5,6.51a10.88,10.88,0,0,0,14.9-3.91c1.36-2.31,2.1-5.78,1.1-8.39-7.22-18.9-14.71-37.69-22.12-56.52-3-7.54-6-15.06-8.89-22.65q-5.4-14.44-10.82-28.9c-14.06-37.55-27.87-75.19-41.72-112.82-5.66-15.4-11.23-30.83-16.83-46.24L1075,1011c-1.48-4.08-3.18-8.1-4.78-12.14l-27.93-70.22c-4.09-10.3-8.22-20.58-12.54-30.79l-3.45-8.14,50.94,17.93,60.06,21.13c14.55,5.12,29,10.45,43.54,15.68l56.36,20.33c2.82,1,5.6,2.11,8.39,3.21l29.71,11.78,31,12.3c3.89,1.54,7.81,3,11.66,4.65l47.39,20,30.43,12.85c6.21,2.69,12.41,5.44,18.77,7.78a75.6,75.6,0,0,0,20.52,4.14l1.92,0a71.42,71.42,0,0,0,7.86-.94,26,26,0,0,0,8.32-3.47,23.77,23.77,0,0,0,8.66-9.41,17.62,17.62,0,0,0,2.57-7.22,32.45,32.45,0,0,0,.8-8.09l-.24-2.38c-.29-2.73-.69-5.45-1.18-8.16a47.3,47.3,0,0,0-2.26-7.65,98.53,98.53,0,0,0-9.09-18.49A167.28,167.28,0,0,0,1442.09,961c-4.8-6.23-9.8-12.19-15.19-17.91a356.62,356.62,0,0,0-26.26-24.72c-10.57-9.14-21.73-17.61-33-25.86-21.36-15.66-43.75-29.75-66.57-43.16-10.44-6.13-20.91-12.18-31.57-17.93l-33.11-17.89c-13.35-7.21-26.83-14.2-40-21.77l-58.67-33.82,3.28-2.29c7.53-5.24,14.87-10.75,22.28-16.16,6.94-5.06,13.65-10.45,20.47-15.68,4.63-3.56,9.19-7.21,13.77-10.85,3.49-2.77,7.11-5.45,10.5-8.35q43-36.81,85.64-73.92c7-6.08,13.71-12.52,20.53-18.78,6.06-5.55,12-11.18,18-16.77q20.9-19.44,42-38.56l23-20.88c9.79-8.89,19.48-17.9,29.39-26.66,9.08-8,18.08-16.14,27.27-24,11.42-9.81,22.74-19.73,34.56-29.06l3.54-4.57a22.61,22.61,0,0,0-19.52-34l-6,.81a22.51,22.51,0,0,0-9.39,5.25q-3.74,2.82-7.43,5.69l-2.11,1.57c-3.16,2.37-6.26,4.87-9.52,7.11L1411,456.36c-5.16,3.55-10.25,7.13-15.6,10.38L1363.83,486l-13.92,8.47c-1.78,1.08-3.55,2.23-5.37,3.26L1320,511.49c-14.33,8-28.64,16.18-43.09,24q-103,55.93-205.77,112.16c-13.54,7.44-27,15-40.65,22.31q-10.43,5.57-20.83,11.17l-14.9-9q-11.31-6.81-22.65-13.59c-7.58-4.56-15.06-9.36-22.93-13.4l-1.75-1.34A25,25,0,0,0,943,642a18,18,0,0,0-5.77-.62q-2.16-15.23-4.33-30.46c-.56-3.94-1.25-7.86-1.91-11.79q-3-18.2-6.08-36.39-10-59.86-20-119.75-3.71-28.17-7.4-56.33c-.65-4.95-1.34-9.88-1.78-14.86l-3.18-35.74q-1.12-12.54-2.24-25.08c-.25-2.77-.31-5.57-.47-8.34q-.55-10-1.12-20c-.4-7-.94-14-1.25-20.94q2.58-13,4.48-26.07a291.63,291.63,0,0,0,3.31-41.32,133.15,133.15,0,0,0-2-21.93,50.39,50.39,0,0,0-1.95-8c-.82-2.47-1.92-4.87-2.83-7.32l-2.37-5.62a23.67,23.67,0,0,0-8.44-8.43,23.55,23.55,0,0,0-23.74,0,46.9,46.9,0,0,0-7.35,5.37c-3.72,3-5.33,8.08-6.69,12.44-1.3,4.16-.88,8.92-1,13.27-.19,4.74-.34,9.48-.42,14.22-.16,10-.14,20-.13,30,0,9.07.47,18.14.73,27.2.15,5,.32,10,.55,15-2.9,12.94-6.25,25.79-9.87,38.54-3.53,12.47-7.37,24.86-11.18,37.25-.82,2.66-1.69,5.28-2.58,7.92L795.85,404,779.8,375.62c-7-12.31-13.79-24.74-21-36.94l-32.39-55.14q-14-23.85-28-47.71c-2.91-5-6.08-9.78-9.11-14.66l-20.5-33q-28.9-46.53-58.07-92.91c-4-6.35-8.24-12.56-12.35-18.84-3.25-5-6.46-9.92-9.89-14.76-5.43-7.63-10.68-15.41-16.44-22.79Q566.51,31.74,561,24.61c-3-4-6-8-9.13-11.87a24.41,24.41,0,0,0-4.16-3.9c-2.72-2.26-5.64-4.22-8.54-6.24A16.66,16.66,0,0,0,529.76,0a20,20,0,0,0-5.27.69Zm41,93.78q5,7.5,10.09,15c3.55,5.28,7,10.63,10.43,16q10.56,16.42,21.13,32.83c20.09,31.23,39.88,62.66,59.79,94,1.89,3,3.69,6,5.52,9.08l17.15,28.48q18.63,31,37.27,61.89c6.06,10.07,11.91,20.27,17.83,30.41l36.78,63.11-1,2.74q-10.76,29.08-21.52,58.16l-4-9.44c-3.78-8.88-8.06-17.55-12.17-26.28Q726,434.85,709.35,399.31q-11-23.4-22-46.79c-6.43-13.71-13.23-27.27-19.84-40.9-16.06-33.07-32.19-66.08-47.95-99.29-17.23-36.33-34.91-72.49-50.72-109.48-1.16-2.78-2.29-5.58-3.4-8.38ZM827.9,456c1.64-4.45,3.4-8.86,4.9-13.35l17.37-51.85q3.44,26.31,6.88,52.61c2.41,18.38,5.68,36.64,8.7,54.93q4.39,26.49,8.78,53l-2.82-5.81c-2.57-5.28-5-10.69-7.72-15.89L834.56,474q-3.91-7.41-7.83-14.81L827.9,456ZM789.54,559.48c1.73-4.47,3.52-8.93,5.18-13.44q8.63-23.35,17.21-46.71l23.66,42.83c1.89,3.42,3.66,6.9,5.44,10.38l16.31,31.93,16.88,33c1.77,3.46,3.6,6.89,5.26,10.4l10.8,22.8q.4,2.92.82,5.85,4.78,33.9,9.58,67.79.62,4.38,1.22,8.74-11.37,4.57-22.92,8.72c-7.26,2.59-14.6,5-22,7.21q-8.28-22.71-16.57-45.41-7.6-20.82-15.2-41.65c-1.52-4.17-3.49-8.3-5.24-12.4L809.52,625q-11.88-27.88-23.75-55.78,1.89-4.86,3.77-9.74Zm273.82,144.06c32.73-18.14,65.42-36.37,98.25-54.34q52-28.44,104-56.88l3.34-1.82-.17.16c-6.17,5.7-12.45,11.24-18.77,16.77q-18,15.81-36.14,31.53-19.09,16.65-38.3,33.14c-2.56,2.21-5.29,4.25-7.93,6.36l-11.53,9.24c-5.53,4.44-11.2,8.73-16.82,13l1.91-1.47c-7,5.17-14,10.49-21.09,15.5-7.42,5.21-14.82,10.47-22.28,15.62l-3.07,2.12-40.09-24.2,8.69-4.78ZM434,640.92c-9.62-9-19.33-18-28.78-27.24L392.9,601.62q32.21,17.4,64.41,34.81l63.43,34.29c9.5,5.12,19.11,10,28.69,15L619.48,722l23.66,12.24c2.41,1.25,4.82,2.39,7.3,3.51l15.06,6.79q-2,5-4,9.92-3,7.14-6,14.27a344.18,344.18,0,0,1-72.72-20.84c-7.22-3.14-14.31-6.5-21.3-10.15-9-4.71-17.77-10-26.36-15.5-15.45-9.87-30.23-20.78-44.81-31.9C470.63,674.87,452.21,658,434,640.92Zm302.86,53.39c5.31-13.23,10.77-26.41,15.91-39.72l11.31-29.28q9.64,22.91,19.3,45.82c.79,1.88,1.47,3.77,2.16,5.69q3.75,10.38,7.48,20.74,11.28,31.22,22.54,62.45-4.25.94-8.51,1.82l-18.7-7.43q-32-14.39-64-28.81,6.28-15.65,12.55-31.28Zm206.44-10q4,2.55,7.94,5.08,9.66,6.12,19.31,12.24-10.35,5.25-20.85,10.23-1.83-4-3.64-7.94l-2.76-19.61Zm50.38,56.54c7.22-3.66,14.38-7.43,21.51-11.23q3.3,2,6.58,4.1c12.24,7.6,24.44,15.27,36.66,22.89q-3.7,2.31-7.48,4.54c-8.13,4.82-16.28,9.6-24.51,14.26s-16.57,9.19-25,13.65q-7.29,3.87-14.6,7.67l-13.14-31c-1.77-4.17-3.52-8.34-5.31-12.5q12.71-6,25.24-12.35ZM708.9,764.07l16.86,7.6c-3.39.1-6.78.16-10.17.22s-6.62.08-9.94.07q1.65-3.94,3.25-7.89Zm173.21,25.17c8.81-2.93,17.53-6.13,26.16-9.54q1.59,11.74,3.16,23.51c-2.53-1-5.06-1.94-7.57-2.94l-25-9.95,3.29-1.08Zm138.09,40.91c8.33-4.4,16.66-8.77,24.87-13.39s16.41-9.26,24.54-14l11.63-6.84c4.27-2.51,8.36-5.39,12.52-8.07q3.75-2.41,7.46-4.88,5.33,3.2,10.68,6.38l58.71,34.78c3.46,2.06,6.87,4.2,10.4,6.15l19.16,10.61,55.13,30.53c3.56,2,7,4.07,10.56,6.13,10.22,6,20.4,12.08,30.5,18.3q29.23,18,56.62,38.88,14.67,11.53,28.31,24.24a261.8,261.8,0,0,1,25,26.37c.63.85,1.26,1.71,1.88,2.58-13.88-5.79-27.79-11.5-41.69-17.27-15.87-6.58-31.69-13.29-47.69-19.57L1254,925.65c-3.55-1.39-7.16-2.64-10.76-3.93l-32.39-11.57q-51.75-18.49-103.59-36.68L1040.1,850c-10.94-3.82-21.8-7.86-32.68-11.81l-1.56-.57q7.18-3.71,14.34-7.48Zm-61.05-30.92,4.17,9.58-2.68,1.34q-.75-5.46-1.49-10.92Zm-237.31,19c27.83-.6,55.55-4.07,82.93-9q3.15-.56,6.28-1.17l25.57,10.19,7.08,19.61c2.71,7.53,5.58,15,7.95,22.65h0q-25.8,11.46-51.59,23c-17.7,7.92-35.22,16.23-52.82,24.37-14.8,6.85-29.52,13.86-44.27,20.81L668.84,944.8c-4,1.86-8,3.67-11.85,5.63L618.3,970q16-34.4,31.93-68.78l8.14-17.53c2-4.33,3.74-8.82,5.59-13.21L686.17,818c6.92.28,13.85.4,20.77.4q7.45,0,14.9-.17ZM890,839.55l4.55,1.79-3.38,1.54q-.57-1.67-1.17-3.33Zm31.31,38.87,1-.46q5.74,36.09,11.48,72.18c1.66,10.4,3.3,20.8,5.16,31.16s3.69,20.59,5.54,30.88l-3.58-11.41-23.46-74.68q-6.3-20.07-12.61-40.15,8.25-3.72,16.47-7.52Zm478.1,152.63,1.47.62-1.47-.62Zm-940.5,87.79,8.12-6.19c.66-.5,1.4-.93,2.09-1.38l6.56-4.34,25.46-16.82-4.23,7.25-32.43,55.7c-2.17,3.73-4.69,7.28-7,10.9l-19.37,29.72-17,26c-7.88,12.09-16.55,23.69-25.32,35.16a497.58,497.58,0,0,1-45.81,51.5c-11,10.6-21.68,21.47-33.52,31.09a109.3,109.3,0,0,1-10.78,7c-.2-.4-.4-.8-.59-1.2a111.61,111.61,0,0,1-5.1-18.56c-.18-2.43-.26-4.84-.24-7.31,0-1.57.12-3.13.27-4.7.47-2.5,1-4.93,1.72-7.41a60.25,60.25,0,0,1,2.22-6.24,324.79,324.79,0,0,1,22.81-41.39c8.56-13.47,17.5-26.76,27.09-39.53,11.92-15,25.1-29,38.52-42.71,14.28-14.55,29.76-27.77,45.58-40.6q10.49-8,21-16Z"/></svg>